PathFileType	4	(X/Y/Z)	pose_F01_0-74.trc
DataRate	CameraRate	NumFrames	NumMarkers	Units	OrigDataRate	OrigDataStartFrame	OrigNumFrames
30	30	7	21	m	30	31	74
Frame#	Time	CHip			RHip			RKnee			RAnkle			RBigToe			RSmallToe			RHeel			LHip			LKnee			LAnkle			LBigToe			LSmallToe			LHeel			Neck			Nose			RShoulder			RElbow			RWrist			LShoulder			LElbow			LWrist			
		X1	Y1	Z1	X2	Y2	Z2	X3	Y3	Z3	X4	Y4	Z4	X5	Y5	Z5	X6	Y6	Z6	X7	Y7	Z7	X8	Y8	Z8	X9	Y9	Z9	X10	Y10	Z10	X11	Y11	Z11	X12	Y12	Z12	X13	Y13	Z13	X14	Y14	Z14	X15	Y15	Z15	X16	Y16	Z16	X17	Y17	Z17	X18	Y18	Z18	X19	Y19	Z19	X20	Y20	Z20	X21	Y21	Z21	
31	1.0333333333333334	-0.24795758002679588	1.832517637386564	-0.42562730848980174	-0.2585949159909057	1.8287536838087493	-0.3674522469088337	-0.23568996868515932	1.721160817828959	-0.5603163035697899	-0.2244888295286436	1.567608203881345	-0.5890640500835063	-0.24264769511504852	1.5460580895465732	-0.6377870476963055	-0.24439237972043457	1.5367095976086949	-0.630823515575567	-0.2186146596009567	1.5813509442153366	-0.5935532268689709	-0.24143819290340568	1.8348208754094621	-0.4914347448907021	-0.2155954620318903	1.7074009152681788	-0.5934094000686794	-0.21627666166240034	1.5941645523900814	-0.616862509547069	-0.23021826253457997	1.5569008211632052	-0.619952453662403	-0.2206457737593899	1.5636896029046121	-0.6557255165140213	-0.21276590769256737	1.5843985001531642	-0.6147382577701647	-0.24333668735354372	1.9792769685638723	-0.4505645449527855	-0.24500618463717302	2.050058286523003	-0.5232778573612983	-0.25995717846216826	1.9782887396863522	-0.3566300930061335	-0.27153676631997337	1.9019548660939691	-0.3035209379267119	-0.2696167936235511	1.927755168804691	-0.4392216853584838	-0.22789285448894733	1.9813198079190715	-0.5578636621012215	-0.22210421586866338	1.8999495797416504	-0.5674976816465096	-0.2592795576990025	1.929407210476535	-0.5144016922566632
32	1.0666666666666667	-0.25503019628586127	1.8274726200857234	-0.41317021270538135	-0.26631816633987	1.8261077457643708	-0.3585132186880666	-0.23568996868515932	1.721160817828959	-0.5603163035697899	-0.2244888295286436	1.567608203881345	-0.5890640500835063	-0.24264769511504852	1.5460580895465732	-0.6377870476963055	-0.24439237972043457	1.5367095976086949	-0.630823515575567	-0.2186146596009567	1.5813509442153366	-0.5935532268689709	-0.24891273914302262	1.8291297512515636	-0.4784133715062992	-0.2155954620318903	1.7074009152681788	-0.5934094000686794	-0.21627666166240034	1.5941645523900814	-0.616862509547069	-0.23021826253457997	1.5569008211632052	-0.619952453662403	-0.2206457737593899	1.5636896029046121	-0.6557255165140213	-0.21276590769256737	1.5843985001531642	-0.6147382577701647	-0.24634373260575612	1.9773500293944866	-0.4429843341277757	-0.2501261256323369	2.048260574279166	-0.5138473911635002	-0.26075521342855457	1.9767305722664676	-0.35072372853817474	-0.27946400387261544	1.8985628690681944	-0.289049045347193	-0.27929397729499217	1.9178737473381327	-0.4013130245444769	-0.23012793951097926	1.9811832260103486	-0.5470391888570681	-0.22534323193235553	1.898145229067557	-0.5594899608594215	-0.26989307797399015	1.9271242399950543	-0.5120407880416654
33	1.1	-0.2602724666790441	1.8314842338731487	-0.4067886242805872	-0.2676931808643682	1.829921163847159	-0.34765481968875295	-0.23568996868515932	1.721160817828959	-0.5603163035697899	-0.2244888295286436	1.567608203881345	-0.5890640500835063	-0.24264769511504852	1.5460580895465732	-0.6377870476963055	-0.24439237972043457	1.5367095976086949	-0.630823515575567	-0.2186146596009567	1.5813509442153366	-0.5935532268689709	-0.253132619920817	1.834537607463948	-0.4690988096371005	-0.2155954620318903	1.7074009152681788	-0.5934094000686794	-0.21627666166240034	1.5941645523900814	-0.616862509547069	-0.23021826253457997	1.5569008211632052	-0.619952453662403	-0.2206457737593899	1.5636896029046121	-0.6557255165140213	-0.21276590769256737	1.5843985001531642	-0.6147382577701647	-0.24822378133970568	1.978352047857808	-0.4407669084609348	-0.2540282848129319	2.0505580616099697	-0.5098561404653286	-0.2644242536688958	1.9763842246606618	-0.34636910797478315	-0.27991260138744695	1.8965573372488937	-0.28312011876059573	-0.2886807338609775	1.9200467182487095	-0.4136651282781326	-1.614813775137494	1.8874025291567196	0.9487935689203444	-0.2314171457565816	1.8969663222690392	-0.5525176571321588	-0.2773987487265486	1.931685774157215	-0.5036563414332624
34	1.1333333333333333	-0.2642574535639687	1.8314838238668116	-0.40244265021396214	-0.27217980135321196	1.8305923741265682	-0.33814765032534577	-0.23568996868515932	1.721160817828959	-0.5603163035697899	-0.2244888295286436	1.567608203881345	-0.5890640500835063	-0.24264769511504852	1.5460580895465732	-0.6377870476963055	-0.24439237972043457	1.5367095976086949	-0.630823515575567	-0.2186146596009567	1.5813509442153366	-0.5935532268689709	-0.25645214968998314	1.8335801692856921	-0.46120146578982685	-0.2155954620318903	1.7074009152681788	-0.5934094000686794	-0.21627666166240034	1.5941645523900814	-0.616862509547069	-0.23021826253457997	1.5569008211632052	-0.619952453662403	-0.2206457737593899	1.5636896029046121	-0.6557255165140213	-0.21276590769256737	1.5843985001531642	-0.6147382577701647	-0.2501064763014236	1.978824795469936	-0.43842640274889294	-0.25991380859101815	2.05170639896216	-0.5031494333516339	-0.26609956229872817	1.978457557752826	-0.3441723473390471	-0.28287711547260636	1.8995370408465286	-0.2847368226050483	-0.29387417628041823	1.9334055532913688	-0.40876406822569966	-0.23415384551746185	1.9819933569263806	-0.5341247941496283	-0.23559198098232825	1.8998959460685638	-0.5483809445093935	-0.2817762746567328	1.9422573920647472	-0.4947199880007951
35	1.1666666666666667	-0.26936764829055615	1.8275039106701578	-0.3922859098155142	-0.2787748778750526	1.8282043771173588	-0.32576638116060447	-0.23568996868515932	1.721160817828959	-0.5603163035697899	-0.2244888295286436	1.567608203881345	-0.5890640500835063	-0.24264769511504852	1.5460580895465732	-0.6377870476963055	-0.24439237972043457	1.5367095976086949	-0.630823515575567	-0.2186146596009567	1.5813509442153366	-0.5935532268689709	-0.259774164447561	1.830091195532778	-0.4530306791055032	-0.2155954620318903	1.7074009152681788	-0.5934094000686794	-0.21627666166240034	1.5941645523900814	-0.616862509547069	-0.23021826253457997	1.5569008211632052	-0.619952453662403	-0.2206457737593899	1.5636896029046121	-0.6557255165140213	-0.21276590769256737	1.5843985001531642	-0.6147382577701647	-0.25781904940270933	1.9806251838911648	-0.4302971247519688	-0.2620740279855615	2.052696749666859	-0.5013786891870754	-0.2717499350223107	1.9815462599106322	-0.3387317103212483	-0.28563967555399206	1.902276945340204	-0.27817279169137366	-0.29906761869985904	1.9467643883340278	-0.40386300817326676	-0.23925726464943237	1.9823719393533659	-0.5327306024614452	-0.23774616237719362	1.8967060939590372	-0.5456686633403077	-0.27631400885177015	1.9377042906261275	-0.501690924719656
36	1.2	-0.27646396339195206	1.8253704922033824	-0.38865852360576975	-0.2838738594378181	1.8261209328116592	-0.3246586178747104	-0.23568996868515932	1.721160817828959	-0.5603163035697899	-0.2244888295286436	1.567608203881345	-0.5890640500835063	-0.24264769511504852	1.5460580895465732	-0.6377870476963055	-0.24439237972043457	1.5367095976086949	-0.630823515575567	-0.2186146596009567	1.5813509442153366	-0.5935532268689709	-0.26430931875675157	1.8264208302579061	-0.4569210733411629	-0.2155954620318903	1.7074009152681788	-0.5934094000686794	-0.21627666166240034	1.5941645523900814	-0.616862509547069	-0.23021826253457997	1.5569008211632052	-0.619952453662403	-0.2206457737593899	1.5636896029046121	-0.6557255165140213	-0.21276590769256737	1.5843985001531642	-0.6147382577701647	-0.2599418357809619	1.980912678172206	-0.4284867408356216	-0.26796758557778544	2.052563312781122	-0.49486764009382384	-0.27376746557664633	1.9814800084221655	-0.33704374401404436	-0.29266104482771194	1.8955668102373648	-0.26804780640254705	-0.2972239939211653	1.928390659056483	-0.3848075404689589	-0.24332302122016816	1.982444361194526	-0.5282732401826089	-0.24070435849394609	1.8994754794248392	-0.5469250982615296	-0.28431132351189353	1.933958894146465	-0.4921740512741221
37	1.2333333333333334	-0.2752784317158115	1.8227231286823609	-0.3850541110556892	-0.28334492211865686	1.8241253710286502	-0.31542958415311456	-0.23568996868515932	1.721160817828959	-0.5603163035697899	-0.2244888295286436	1.567608203881345	-0.5890640500835063	-0.24264769511504852	1.5460580895465732	-0.6377870476963055	-0.24439237972043457	1.5367095976086949	-0.630823515575567	-0.2186146596009567	1.5813509442153366	-0.5935532268689709	-0.2639363822783204	1.8250028705719272	-0.45674640596987254	-0.2155954620318903	1.7074009152681788	-0.5934094000686794	-0.21627666166240034	1.5941645523900814	-0.616862509547069	-0.23021826253457997	1.5569008211632052	-0.619952453662403	-0.2206457737593899	1.5636896029046121	-0.6557255165140213	-0.21276590769256737	1.5843985001531642	-0.6147382577701647	-0.2636235027317419	1.9806984505492753	-0.42372880651625705	-0.27287722209891135	2.052427495223674	-0.4854356880045667	-0.2792342181217292	1.9799520449839072	-0.33014170368089296	-0.2963594922211759	1.9017514285147623	-0.2651309914098541	-0.2983583029843442	1.9326808515558869	-0.3967209026789302	-0.24829310663131732	1.9828668446189073	-0.5270721194668303	-0.24364689671812087	1.900897614965391	-0.5565548660142341	-0.28401986803294454	1.9394821767166144	-0.49214303009442856
